<?xml version="1.0" encoding="utf-8"?>
<!-- Generator: Adobe Illustrator 12.0.0, SVG Export Plug-In . SVG Version: 6.00 Build 51448)  -->
<!DOCTYPE svg PUBLIC "-//W3C//DTD SVG 1.1//EN" "http://www.w3.org/Graphics/SVG/1.1/DTD/svg11.dtd" [
	<!ENTITY ns_svg "http://www.w3.org/2000/svg">
	<!ENTITY ns_xlink "http://www.w3.org/1999/xlink">
]>
<svg  version="1.1" id="レイヤー_1" xmlns="&ns_svg;" xmlns:xlink="&ns_xlink;" width="282.076" height="149.355"
	 viewBox="0 0 282.076 149.355" overflow="visible" enable-background="new 0 0 282.076 149.355" xml:space="preserve">
<path fill="#2369B2" d="M43.688,68.111c0,0-17.592,12.695-25.447,15.886c-7.854,3.191-18.145,8.661-15.991,16.666
	c4.738,17.595,63.555,45.198,141.222,45.569c46.033,0.222,123.712-17.3,135.331-39.679c4.432-8.532-2.679-14.019-12.996-20.341
	c-10.267-6.289-34.664-23.531-34.664-23.531L43.688,68.111z"/>
<path fill="#417CBE" d="M24.227,91.503c-3.647-0.099,8.896-16.118,8.896-16.118l44.839-34.704l35.75-12.194l60.804-1.351
	l38.434,16.767l33.199,29.179c0,0,15.688,15.8,4.809,16.165c-10.517,0.355-22.72-12.678-28.27-11.445
	c-5.552,1.229-0.463,22.489-10.035,22.296c-9.573-0.196-28.863-19.643-39.018-20.438c-10.157-0.796-13.356,19.926-27.311,18.582
	c-13.955-1.348-27.415-20.934-36.046-20.067c-8.631,0.865-30.095,21.383-35.674,20.81c-5.58-0.573-2.26-26.938-9.661-27.5
	C57.538,70.921,27.873,91.603,24.227,91.503z"/>
<path fill="#9EBEE4" d="M124.471,5.841c-8.77,4.502-58.59,44.202-58.59,44.202l21.536-11.942L77.104,57.263l36.992-18.134
	l-6.822,21.617l23.55-19.369l11.984,21.458l10.033-21.228l27.315,18.393l-2.975-20.807l37.534,23.596l-10.405-21.553l24.864,16.95
	c0,0-47.942-48.423-56.7-53.091C163.716,0.426,133.242,1.338,124.471,5.841z"/>
</svg>
